<?xml version="1.0" encoding="UTF-8"?>
<svg id="Layer_1" xmlns="http://www.w3.org/2000/svg" version="1.1" xmlns:xlink="http://www.w3.org/1999/xlink" viewBox="0 0 321.9 56">
  <!-- Generator: Adobe Illustrator 29.2.1, SVG Export Plug-In . SVG Version: 2.1.0 Build 116)  -->
  <defs>
    <style>
      .st0 {
        fill: #fff;
      }
    </style>
  </defs>
  <path class="st0" d="M87.2,1.5c7.4,17.6,18.8,45.3,22.9,53.4-1.4-.2-2.7-.4-4-.4s-2.7.2-4,.4c-1.4-5.2-5.1-13.6-7.8-20.4-3.3,0-6.6-.2-10-.2s-6.2,0-9.3.2c-3.2,7.8-6.1,15.6-7.4,20.4-1-.2-1.9-.4-2.8-.4s-1.8.2-2.8.4c8.1-17.8,16-35.5,23.8-53.4,0,0,1.4,0,1.4,0ZM84.7,11.8l-8.3,19.3c2.7,0,5.5.2,8.2.2s5.7-.1,8.5-.2c0,0-8.4-19.3-8.4-19.3ZM119.2,22.2c0-5.2,0-10.5-.2-15.7-5.2,0-12,.3-16.3.8.2-.8.4-1.6.4-2.4s-.2-1.5-.4-2.4c6.5.2,13.1.4,19.6.4s13.1-.2,19.6-.4c-.2.8-.4,1.6-.4,2.4s.2,1.6.4,2.4c-4.3-.5-11-.8-16.3-.8-.2,5.2-.2,10.5-.2,15.7v13.1c0,6.5.3,13.1.6,19.7-1.3-.2-2.5-.4-3.7-.4s-2.4.2-3.7.4c.3-6.5.6-13.1.6-19.7v-13.1ZM187.4,22.2c0-6.5-.3-13.1-.6-19.7,1.3.2,2.5.4,3.7.4s2.4-.2,3.7-.4c-.3,6.5-.6,13.1-.6,19.7v13.1c0,6.5.3,13.1.6,19.7-1.3-.2-2.5-.4-3.7-.4s-2.4.2-3.7.4c.3-6.5.6-13.1.6-19.7v-6.8c-5.3-.1-10.6-.2-15.9-.2s-10.6.1-15.9.2v6.8c0,6.5.3,13.1.6,19.7-1.3-.2-2.5-.4-3.7-.4s-2.4.2-3.7.4c.3-6.5.6-13.1.6-19.7v-13.1c0-6.5-.3-13.1-.6-19.7,1.3.2,2.5.4,3.7.4s2.4-.2,3.7-.4c-.3,6.5-.6,13.1-.6,19.7v2.7c5.3.1,10.6.2,15.9.2s10.6-.2,15.9-.2v-2.7ZM205.5,22.1c0-6.5-.3-13.1-.6-19.6,4.6.2,9,.4,13.6.4s9-.2,13.5-.4c-.2.8-.2,1.5-.2,2.3s.1,1.5.2,2.3c-6.4-.5-10.1-1-20-1-.1,3.3-.3,5.9-.3,9.7s.1,8.1.1,10c9,0,14-.4,18.5-.8-.2.8-.2,1.6-.2,2.4s.1,1.5.2,2.3c-5.2-.5-14.8-.7-18.5-.7-.1,1.8-.1,3.7-.1,11s.1,9.5.2,11.4c6.8,0,15.7,0,20.5-1-.2.7-.2,1.7-.2,2.4s.1,1.5.2,2.2c-4.5-.2-9-.4-13.7-.4s-9.2.2-13.8.4c.3-6.6.6-13.2.6-19.8v-13.1ZM283.2,56c-11.6-13.6-25.4-28.2-38.4-42-.1,2.8-.2,7.4-.2,15.4s.3,22.6.7,25.6c-.8-.2-1.7-.4-2.7-.4s-1.8.2-2.8.4c.6-3.6,1.6-23,1.6-33.1s0-16.9-.2-20.4h1.2c12.4,13.5,29.2,31.8,38.5,41.1,0-13.6,0-28.4-.6-40.1.8.2,1.7.4,2.6.4s1.6-.2,2.4-.4c-.5,4.5-1.2,19.5-1.2,25.5s.2,24.5.2,28c0,0-1.1,0-1.1,0ZM295,22.1c0-6.5-.3-13.1-.6-19.6,4.6.2,9,.4,13.6.4s9-.2,13.5-.4c-.2.8-.2,1.5-.2,2.3s.1,1.5.2,2.3c-6.4-.5-10.1-1-20-1-.1,3.3-.3,5.9-.3,9.7s.1,8.1.1,10c9,0,14-.4,18.5-.8-.2.8-.2,1.6-.2,2.4s.1,1.5.2,2.3c-5.2-.5-14.8-.7-18.5-.7-.1,1.8-.1,3.7-.1,11s.1,9.5.2,11.4c6.8,0,15.7,0,20.5-1-.2.7-.2,1.7-.2,2.4s.1,1.5.2,2.2c-4.5-.2-9-.4-13.7-.4s-9.2.2-13.8.4c.3-6.6.6-13.2.6-19.8v-13.1h0ZM6.1,7.3c-2.2,1.4-4.2,2.9-6.1,4.6,17.4,3,31.4,11.7,40.1,24.2C35.3,22.2,24.3,12.3,6.1,7.3Z"/>
  <path class="st0" d="M18.6,1.7c-3.2.9-6.3,2.1-9.3,3.7,22.9,7.1,32,21.8,35,35.9,0-16.1-8.7-29.4-25.7-39.6Z"/>
  <path class="st0" d="M46.7,46.8C51.6,24.9,40.8,9.2,31.3,0c-.6,0-1.2,0-1.8,0-2.4,0-4.8.2-7.1.7,21.3,14,25.8,31.3,24.3,46.1Z"/>
  <path class="st0" d="M48.6,50.5c6.8-14.7,6.3-30.2-1.5-45.6-3.5-2-7.3-3.5-11.5-4.2,9,9.6,19.5,26.6,13,49.8Z"/>
  <path class="st0" d="M59.1,16.9c-2.1-3.3-4.6-6.3-7.6-8.8,6.6,16,5.8,32.3-2.4,47.4,5.4-7.7,8.9-16.7,9.9-26.7.5-4,.5-8,0-11.9Z"/>
</svg>