<?xml version="1.0" encoding="UTF-8"?>
<svg id="layer" xmlns="http://www.w3.org/2000/svg" version="1.1" xmlns:xlink="http://www.w3.org/1999/xlink" viewBox="0 0 465.2 84.1">
  <!-- Generator: Adobe Illustrator 29.2.1, SVG Export Plug-In . SVG Version: 2.1.0 Build 116)  -->
  <defs>
    <style>
      .st0 {
        fill: #fff;
      }

      .st1 {
        fill: #9e9e9e;
      }
    </style>
  </defs>
  <path class="st1" d="M57.6,39.1c.2-.5,0-3-1.2-3.6-.8-.4-1.7-.5-2.5-.5s-1.7.1-2.5.3c1.9,1.5,4,2.8,6.2,3.8ZM65.6,62.9c-1.8,2-4.2,5.3-6.3,5.3-2-.3-3.9-.9-5.6-1.8-1.4-.8-1.8-1.5-1.8-2.4s.3-1.4.3-1.8c0-1.8-2.7-6.1-5.5-9.7s-9.7-7.2-9.7-13.4c0-5.8,3.5-11.1,8.8-13.5v-.8c-7.7,2.4-13.7,8.6-13.7,19.4,0,17.3,14.4,26,17.3,39.3,22.8-5.1,37.1-27.8,32-50.5C76.3,10.2,53.6-4.1,30.9,1,16.8,4.2,5.3,14.4.4,28,9.2,17.5,22.2,11.5,35.9,11.5s6.8.4,10.1,1v.7c-1.7-.2-3.6-.2-5.3-.2C19.1,13,0,30.4,0,48.2s16.8,33.6,35.1,35.9v-.7c-6.2-2.4-25.5-12.8-25.5-33.2s14.9-31.8,31.4-31.8c2.7-.1,5.5.3,8.1,1.1,2.7-2.7,4-7.3,4.8-7.3s1.4,2.6,1.4,4.5c0,1.8-.6,3.5-1.4,5.1,4.2,2.7,7.1,10.6,7.1,12.1s-.4,1.7-.4,2.8c.6,4.4,1.5,8.8,2.5,13.1.9,4.1,1.8,8.6,2.5,13.1h0Z"/>
  <path class="st0" d="M192.2,67.6h-10l-6.1-14.1h-19.8l-6.3,14.1h-5.5l24.1-53.4,23.6,53.4ZM158.4,49h15.7l-7.7-17.7-8,17.7ZM219.5,68.6c-14,0-25.2-10.2-25.2-26.3s12.3-27.5,25.2-27.5,18.3,5,18.9,14.4l-10.3,1.2c-.3-6.9-4.2-10.8-10.2-10.8s-14.4,7.5-14.4,18.4,8.2,22.5,19.6,22.5c6.2.1,12-2.8,15.7-7.9-.6,10.4-9.8,16-19.3,16h0ZM248.3,15.8h9.3v24.5l22.8-24.6h7.3l-17.8,19.2,19.5,32.7h-10.7l-15.3-25.7-5.7,6v19.6h-9.3V15.8h0ZM400.9,14.3l37.3,36.5V15.7h5.5v53.3l-37.3-36.4v35h-5.5V14.3ZM117.8,77.5c7.9-2.8,10.1-9.8,10.1-18.7V15.7h9.3v43.4c0,11.6-5.2,19-14.7,19-1.6,0-3.2-.2-4.7-.6ZM312.5,35.4l7.4,2.9c7.6,3,12.9,7.5,12.9,14.9s-7.7,15.4-19,15.4-19.3-5.3-20.1-14.7l10.2-1.3c.1,6.3,3.6,11.4,10.7,11.4s9.5-3.2,9.5-7.7-2.6-7.1-9.5-9.8l-7.4-2.9c-7.5-2.9-12-7.9-12-14.2s7.3-14.7,17.9-14.7,17.2,4.7,18.3,12.6l-10,1.2c.3-4.8-3.3-8.9-8.1-9.3h-1.1c-5.3,0-8.2,3.1-8.2,7.1s2.2,6.7,8.5,9.1ZM340.3,41.8c0-16.9,12.5-27,25.9-27s25.5,9.6,25.5,26.8-12.5,27.1-25.9,27.1c-13.5,0-25.5-9.8-25.5-26.9ZM367,63.8c8.5,0,14.4-7.9,14.4-20.5s-6.9-23.8-16.4-23.8-14.4,7.9-14.4,20.5,6.9,23.8,16.4,23.8h0ZM454.1,20.4c0-1.5.5-2.9,1.6-3.9,2.1-2.2,5.6-2.2,7.8-.1h.1c1,1.1,1.6,2.6,1.6,4s-.5,2.9-1.6,3.9c-2.2,2.2-5.7,2.2-7.9,0-1-1.1-1.6-2.5-1.6-3.9ZM455.3,20.4c0,1.2.4,2.3,1.2,3.2.8.9,1.9,1.4,3.1,1.3,1.2,0,2.3-.4,3.1-1.3.8-.9,1.3-2,1.2-3.2,0-1.2-.4-2.3-1.2-3.2-.8-.9-1.9-1.3-3.1-1.3s-2.3.4-3.1,1.3c-.8.8-1.2,2-1.2,3.2h0ZM457.6,17.3h2.2c.9-.2,1.8.5,1.9,1.4v.4c0,.8-.6,1.5-1.4,1.7l1.8,2.7h-1.2l-1.8-2.6h-.5v2.6h-1v-6.2ZM459.8,19.8c.6,0,.9-.2.9-.7s-.3-.8-.9-.8h-1.2v1.5h1.2Z"/>
</svg>