<?xml version="1.0" encoding="UTF-8"?>
<svg xmlns="http://www.w3.org/2000/svg" version="1.1" viewBox="0 0 202 60">
  <!-- Generator: Adobe Illustrator 29.2.1, SVG Export Plug-In . SVG Version: 2.1.0 Build 116)  -->
  <defs>
    <style>
      .st0 {
        fill: #fff;
      }

      .st1 {
        fill: #4d4d4d;
      }
    </style>
  </defs>
  <g id="Layer_1" focusable="false">
    <path class="st1" d="M32.5,49.3h10.8V13.6h-9.9v22.2l-2.9-2.8V15.3c0-10.4,1.2-15.4,1.2-15.4-3.3,0-5.1,3.2-5.5,4.1-2,.2-3.7,1.5-4.5,3.4-.5.9-.8,1.9-1,2.9-4,.9-4.3,8-4,9.2l-6.2-6H-.1v35.7h9.9v-21.6l4.8,4.5c.2.6.5,1.3.9,1.8l-1.9-1.6c-.4,2.3.2,4.7,1.6,6.6l-2.3-1.9c-.2,2.4.7,4.9,2.5,6.5l-3-1.5c-.2,2.1,1.9,5.1,3.1,5.7l-2.5-.4c.2,1.6,1.2,3,2.5,3.9,0,0-4.3,0-6.4,0-3.1,0-6.2.2-9.2.5,1.5,1.5,3.5,2.4,5.6,2.6l-2.8,1.7c1.3.4,2.6.5,4,.4l-1.6,1.9s5.1-2,7.2-1.8c1.7.1,9.7,3.2,15.1,3.2,2.9,0,5.8-.9,8.3-2.5,1.1-.6,2.2-1.1,3.5-1.4,1-.2,2,0,2.8.4.2-.8.8-2.9-2.4-3.4-.2-.7-.8-1.3-1.5-1.4-1.7-.3-8.8-.8-9-.8-.6,0-2.7-.4-.8-3.1.1-.2,1.1-1.4,1.1-1.4l3.2,3ZM32.3,52c2.3.2,4,.3,5.7.5.6,0,.9.8,1,1.2-.7-.1-1.4-.2-2.1-.3v.8c.7-.2,1.4-.3,2.2-.3,0,0,2.4,0,2.3,1.6-.8-.3-1.6-.4-2.4-.2-1.3.3-2.6.8-3.7,1.5-1.3.7-2.7,1.4-4.1,1.8.7-.7,2.5-2.6,2.5-2.6l-2.4-.8,1.9-1.7-3-1.6c.7,0,1.5.1,2.1.2M28.8,45.6c-1.1,1.3-2.5,3.1-2.2,4.4h0c.2,1.1,1.8,1.8,1.8,1.8l3.3,1.8-2.2,1.9,2.6.8s-2.4,2.4-2.6,2.7c-.7.1-1.4.2-2.2.2-5.5,0-13.1-3.2-15-3.3-1.8.1-3.5.5-5.1,1.3l1.5-1.6c-1.3.2-2.6.3-3.9.2l2.7-1.8c-1.9,0-3.7-.5-5.4-1.5,0,0,4.3-.3,10.2-.3,2.4,0,6.4.3,6.4.3-2-.8-3.8-2-4.6-3.9l3.8.6c-1.6-1-3.9-3.4-4.3-5.3l4.2,1.5c-.8-.8-3.4-3.3-3.8-6.1l3.3,2.1c-.9-.9-3.3-5.6-2.9-6.9l3.1,2.1c-1.5-1.8-3.2-6.7-2.1-8.6.4,2,1.5,3.8,3.1,5-1.4-2-4.4-9.1-1.5-12.3.8,7.1,3.8,9.5,3.8,9.5-2.5-4-5.3-16.2,0-18.7-1,7.8,1.5,12.1,1.5,12.1-1.6-7.2-1.5-17.5,3.8-18.4-1.6,4.4-1.9,9.1-.8,13.7C24.9.7,30.7,1,30.7,1c-.7,4.7-1,9.5-1,14.3v26.4c0,1.8-.2,2.9-.9,3.9"/>
    <path class="st0" d="M103,22.4c1.2,0,2.1,1.1,2,2.3,0,1.2-1.1,2.1-2.3,2-1.1,0-2-1-2-2.2,0-1.2,1.1-2.2,2.3-2.2"/>
    <path class="st0" d="M161.3,22.4c1.2,0,2.1,1.1,2,2.3,0,1.2-1.1,2.1-2.3,2-1.1,0-2-1-2-2.2,0-1.2,1.1-2.2,2.3-2.2"/>
    <path class="st0" d="M83.7,35.9h-.3c-1.1,0-2.1.1-3.1.4-.7.2-1.4.7-1.4,1.4s1,1.4,1.8,1.4c1.5.2,2.8-.9,3-2.4,0,0,0-.2,0-.3v-.4ZM87.3,33.6v8.1h-3.5v-1.4c-1,1.1-2.4,1.7-3.8,1.7-2.8,0-5-1.6-5-4.2,0-3.9,4.2-4.8,8.2-4.8h.5c0-1.1-.5-2.1-2.6-2.1-1.3,0-2.6.4-3.6,1.3l-2.1-2.1c1.6-1.5,3.7-2.3,5.8-2.2,2.3,0,3.5.3,4.8,1.5,1.2,1.1,1.4,3.1,1.4,4.2"/>
    <path class="st0" d="M95.1,28.3v-4.2h-3.8v4.2h-2.6v3.2h2.6v5.7c0,1.9.3,3,1.1,3.8,1,.8,2.2,1.2,3.4,1,1,0,1.9-.2,2.9-.5v-3c-.7.2-1.4.3-2.1.3-1.2,0-1.5-.6-1.5-1.7v-5.5h3.5v-3.2h-3.5Z"/>
    <path class="st0" d="M191.7,33.5c0-1.4-1.2-2.5-2.6-2.5,0,0-.2,0-.3,0-1.5,0-2.7,1-2.9,2.5h5.8ZM195.8,35.2v1h-9.8c0,1.4,1.6,2.5,3.4,2.6,1.4,0,2.7-.5,3.5-1.6l2.4,1.8c-1.4,1.9-3.5,3-5.9,2.9-4.1,0-7.4-2.5-7.4-7s2.2-7,6.9-7,6.8,3.8,6.8,7.3"/>
    <polygon class="st0" points="68.5 22.2 68.5 35.4 60.2 22.2 55.1 22.2 55.1 41.7 59.3 41.7 59.3 28 67.7 41.7 72.7 41.7 72.7 22.2 68.5 22.2"/>
    <polygon class="st0" points="154 28.3 151.8 36.6 149.7 28.3 145.7 28.3 143.6 36.6 141.4 28.3 137.2 28.3 141.5 41.7 145.3 41.7 147.6 33.3 150.2 41.7 153.8 41.7 158 28.3 154 28.3"/>
    <rect class="st0" x="101.1" y="28.3" width="3.9" height="13.4"/>
    <rect class="st0" x="159.4" y="28.3" width="3.9" height="13.4"/>
    <path class="st0" d="M134.9,29.2c-.9-.9-2.1-1.3-3.3-1.2-1.5,0-3,.7-4,1.8v-1.5h-3.7v13.4h3.9v-7.3c0-.8.2-1.5.7-2.1.4-.5,1-.7,1.7-.8.7,0,1.3.2,1.7.7.4.8.6,1.7.5,2.7v6.8h3.9v-8.4c.2-1.5-.3-3-1.3-4.1"/>
    <path class="st0" d="M176.1,35c.1-1.9-1.3-3.5-3.2-3.6-1.9-.1-3.5,1.3-3.6,3.2,0,.1,0,.3,0,.4-.1,1.9,1.3,3.5,3.2,3.6s3.5-1.3,3.6-3.2c0-.1,0-.3,0-.4M179.9,22.2v19.4h-3.6v-1.5c-1.1,1.2-2.6,1.8-4.2,1.8-1.7,0-3.4-.6-4.6-1.8-1.3-1.4-2-3.3-2-5.2,0-4.1,2.7-7,6.5-7,1.5,0,3,.5,4.1,1.5v-7.2h3.9Z"/>
    <path class="st0" d="M114.4,31.4c-1.9,0-3.4,1.5-3.4,3.4h0c0,0,0,.1,0,.2-.1,1.9,1.3,3.5,3.2,3.6,1.9.1,3.5-1.3,3.6-3.2,0-.1,0-.3,0-.4.1-1.9-1.3-3.5-3.2-3.6,0,0-.1,0-.2,0M121.7,35c.1,4-3,7.4-7,7.5-4,.1-7.4-3-7.5-7-.1-4,3-7.4,7-7.5h0c0,0,.2,0,.2,0,3.8-.2,7,2.7,7.2,6.5h0c0,.2,0,.3,0,.5"/>
    <path class="st0" d="M196.2,25.3c0-1.4,1.1-2.5,2.5-2.5,1.4,0,2.5,1.1,2.5,2.5s-1.1,2.5-2.5,2.5c-1.4,0-2.5-1.1-2.5-2.5h0M195.6,25.3c0,1.7,1.4,3.1,3.1,3.1,1.7,0,3.1-1.4,3.1-3.1,0-1.7-1.4-3.1-3.1-3.1h0c-1.7,0-3.1,1.4-3.1,3.1M198.2,24.1h.5c.4,0,.8,0,.8.5s-.4.5-.8.5h-.5v-1ZM197.5,27h.6v-1.4h.5l.9,1.4h.7l-.9-1.5c.5,0,.9-.4.8-.9h0c0-.7-.4-1.1-1.2-1.1h-1.4v3.5Z"/>
    <path class="st0" d="M32.3,52c2.3.2,4,.3,5.7.5.6,0,.9.8,1,1.2-.7-.1-1.4-.2-2.1-.3v.8c.7-.2,1.4-.3,2.2-.3,0,0,2.4,0,2.3,1.6-.8-.3-1.6-.4-2.4-.2-1.3.3-2.6.8-3.7,1.5-1.3.7-2.7,1.4-4.1,1.8.7-.7,2.5-2.6,2.5-2.6l-2.4-.8,1.9-1.7-3-1.6c.7,0,1.5.1,2.1.2M28.8,45.6c-1.1,1.3-2.5,3.1-2.2,4.4h0c.2,1.1,1.8,1.8,1.8,1.8l3.3,1.8-2.2,1.9,2.6.8s-2.4,2.4-2.6,2.7c-.7.1-1.4.2-2.2.2-5.5,0-13.1-3.2-15-3.3-1.8.1-3.5.5-5.1,1.3l1.5-1.6c-1.3.2-2.6.3-3.9.2l2.7-1.8c-1.9,0-3.7-.5-5.4-1.5,0,0,4.3-.3,10.2-.3,2.4,0,6.4.3,6.4.3-2-.8-3.8-2-4.6-3.9l3.8.6c-1.6-1-3.9-3.4-4.3-5.3l4.2,1.5c-.8-.8-3.4-3.3-3.8-6.1l3.3,2.1c-.9-.9-3.3-5.6-2.9-6.9l3.1,2.1c-1.5-1.8-3.2-6.7-2.1-8.6.4,2,1.5,3.8,3.1,5-1.4-2-4.4-9.1-1.5-12.3.8,7.1,3.8,9.5,3.8,9.5-2.5-4-5.3-16.2,0-18.7-1,7.8,1.5,12.1,1.5,12.1-1.6-7.2-1.5-17.5,3.8-18.4-1.6,4.4-1.9,9.1-.8,13.7C24.9.7,30.7,1,30.7,1c-.7,4.7-1,9.5-1,14.3v26.4c0,1.8-.2,2.9-.9,3.9"/>
  </g>
</svg>