<?xml version="1.0" encoding="UTF-8"?>
<svg id="Layer_1" xmlns="http://www.w3.org/2000/svg" version="1.1" viewBox="0 0 34 34">
  <!-- Generator: Adobe Illustrator 29.2.1, SVG Export Plug-In . SVG Version: 2.1.0 Build 116)  -->
  <defs>
    <style>
      .st0 {
        fill: #3b3b3b;
      }

      .st0, .st1 {
        fill-rule: evenodd;
      }

      .st1 {
        fill: #fff;
      }
    </style>
  </defs>
  <path class="st0" d="M1.8.1h30.3c.9,0,1.6.7,1.6,1.6v30.5c0,.9-.7,1.6-1.6,1.6H1.8c-.9,0-1.6-.7-1.6-1.6V1.8c0-.9.7-1.6,1.6-1.6h0Z"/>
  <path class="st1" d="M13.3,13.4c.4,0,.9,0,1.3.2,1,.5,1.3,2,1.3,3.1,0,.8,0,1.9-.3,2.6-.5,1.5-2.6,1.9-3.6.4-.4-.6-.5-1.5-.6-2.4,0-.8,0-2,.3-2.7.3-.7.9-1.2,1.7-1.3h0ZM21.4,12.8c0-.6.2-1.1.4-1.7.4-1.3.9-2.9,1.4-4.2,0,0,.1-.3.1-.4,0,.1.1.2.2.4.4.9.7,1.8,1,2.7.2.5.4,1,.6,1.6.1.4.5,1.2.5,1.6h-.6c0,0,.2.2.2.3,0,.1.1.2.1.4.3,1.1.1,6,0,7.1,0,.3,0,.8-.4.6-.6-.3-1.7-2.5-2.1-3.1,0-.2-.6-1.2-.7-1.4.1,0,.4,0,.8-.2,1.5-.7,1.2-2.7,0-3.2-.5-.2-1.2-.2-1.8-.2h0ZM17.2,7.8c-.2,0-.3,0-.5,0-.6,0-1.3,0-1.9,0-.4,0-.3,0-.3-.3s0-1.7,0-1.9c.1-.4.5-.3,1-.3.4,0,.9,0,1.3,0,.4,0,.6,0,.9.4.2.2,1.2,2.3,1.3,2.7s.3.6.4.9c.3.6.5,1.2.8,1.9.1.3.2.7.3,1,.1.6-.2.5-.8.5h-1.3c0-.5.1-1.1.1-1.6,0,0-.1.2-.3.4,0,.1-.2.2-.4.2-.6.2-1.9.1-2.5.1-.2,0-.4,0-.5-.1-.1,0-.2-.2-.3-.4,0-.2,0-1.1,0-1.3v-.7c0-.4,0-.5.1-.5.4,0,.9,0,1.3,0s.9,0,1.2.1v-1.2q.1,0,.1,0ZM21,9.9c0,0-.2-.4-.3-.6l-1.4-3c-.2-.4-.3-.8-.5-1.3-.2-.7-.5-.5-1.2-.5h-3.5c-.6,0-1.2,0-1.7,0,.1,0,.1,0,.2.2,0,0,0,.2.1.3,0,.3,0,.5,0,.8,0,1.8,0,3.6,0,5.4,0,0-.2-.3-.2-.4l-.8-1.2c-.4-.5-.7-1.1-1-1.6-.4-.5-.7-1.1-1-1.6-.3-.4-.7-1.2-.8-1.9h-2.4c0,.1.2.1.2.3.2.5.2,1.1.2,1.6,0,1.5,0,3.1,0,4.6,0,.4,0,1.2-.3,1.5-.1.1-.2.1-.4.2.4,0,1.6,0,1.9,0,.6.1.3.9.1,1.3-.3.6-.7,1.2-1,1.8,0,.2-.2.5-.3.6-.1,0-1.6-2.3-1.9-2.6-.3-.4-.7-.9-1.2-1.1-.2-.1-.8,0-1,0s-.8,0-1.1,0c.6,0,1.6,1.1,2,1.6l.7.8c.2.3.5.6.7,1,.6.8,1,1.3,1,2.4s0,1.1,0,1.7c0,.4-.2.6-.4.8,0,0-.2.1-.3.2.9,0,1.6-.4,1.9.8,0,.4,0,2.1,0,2.6s0,3.5,0,4c0,.4-.2.7-.5.8.2,0,.5,0,.8,0,.8,0,1.6,0,2.4,0,.4,0,1.1.1,1.5,0,.2-.1.2-.2.3-.5,0-.2.1-.5.1-.7-.2.3-.5.5-1,.5-.5,0-1,0-1.5,0-.2,0-.4,0-.6-.2-.1-.1-.1-.4-.1-.7,0-1.5,0-3,0-4.5,0-.5,0-1,0-1.5,0-.2,0-.4.2-.6.1-.1.3-.2.5-.2-.4,0-1.2,0-1.6,0-.5-.2-.4-.6-.4-1.2,0-1.4-.1-1.6.6-2.8.2-.4.4-.7.6-1.1.3-.5,1.5-2.5,1.9-2.9,0,0,0,0,.1-.1-.9-.1-1.9.3-2.3-.4,0-.2,0-.3,0-.5v-4.4c0-.3,0-.8,0-1.1.1.1,2.1,3.2,2.1,3.3.2.4,1.9,2.9,2.1,3.3,0,0-.6.2-1,.4-.3.2-.5.4-.7.7-.9,1.1-.9,3.4-.6,4.8.2.9.5,1.4,1.1,1.8.3.2.6.3,1,.4.2,0,.3,0,.5.2.4.4.3,1.2.3,1.8,0,1.6,0,4-.2,5.5,0,.2,0,.4-.1.6,0,.1-.2.3-.4.3h1.3c.2,0,.4,0,.7,0,.1,0,.5,0,.6,0-.1,0-.3-.2-.4-.3-.1-.2-.1-.3-.1-.6,0-1.9,0-3.8,0-5.6,0-.6,0-1.2.3-1.6.2-.2.3-.2.6-.3.4-.1.9-.3,1.2-.6,0,0,0-.1.1-.2.4-.4.6-.9.7-1.5.2-.8.2-1.8,0-2.7-.1-.8-.4-1.6-.8-2.1-.6-.8-1.6-1-1.7-1.1.3,0,2.1,0,2.5,0s.5,0,.7.1c.3.2.5.6.5,1.1.1,1.6.1,3.3,0,4.9,0,.5,0,1.1-.2,1.5-.2.6-.6.4-1.3.5.5.2.4,1.3.4,2,0,1.6,0,3.1,0,4.7,0,.6,0,1.4-.5,1.8h0c.6,0,1.1,0,1.7,0,.2,0,.4,0,.6,0-.2-.2-.3-.4-.4-.7,0-.4,0-2.6,0-3.1.5,0,1,0,1.5,0,.2,0,.5,0,.7,0,.3,0,.4,0,.6.1l.2-1.2c-.5,0-1,0-1.5,0h-1.6c0-.2,0-1.9,0-2.3s0-.4.3-.5c.5,0,1.6,0,2.2,0,.2,0,.4,0,.6.2,0-.2.2-.9.2-.9,0-.1-.3-.1-.5-.1h-.6c-.4,0-.7,0-.9-.2-.1-.2-.1-.7-.1-1v-5.7c0-.4.1-.6.5-.6.6-.1,1.4-.1,1.9.3.5.5.4,1.8-.5,2.3-.4.2-.9.1-1,.2,0,0,0,.3.1.4.5,1.3,1.1,2.6,1.8,3.9.1.2.2.5.5.5.2,0,.3,0,.4.2,0,.1,0,.3,0,.4,0,2,0,4.1,0,6.1,0,.4,0,.9-.2,1.3,0,0-.2.2-.2.3.2,0,.6,0,.8,0,.3,0,.6,0,.9,0,.3,0,.5,0,.8,0,.5,0,2.3.2,2.5,0,.2-.1.2-.5.2-.7,0-.2.1-.6.1-.7l-.2.2c-.2.2-.7.3-1,.3-.8,0-.7.1-1.7,0-.7-.1-.6-.5-.6-1.2s0-1.5,0-1.8c.5,0,1,0,1.4,0s.7,0,1,0c.1,0,.2,0,.3.1l.2-1.1c-.4,0-2.3,0-2.9,0,0-.1,0-1.9,0-2.2,0-.3.1-.4.4-.4.5,0,1,0,1.5,0,.2,0,.5,0,.7,0,.3,0,.4,0,.5.2,0,0,.2-.9.2-1-.1-.1-.3,0-.5,0s-.4,0-.6,0c-.4,0-.4-.5-.4-.9v-6.4c0-.4,0-.8.3-1h-.6c0-.2,1.3-4,1.4-4.2.2-.7.5-1.4.7-2.1.2-.6.4-1.2.7-1.8,0,0,0-.2.1-.2-.4,0-.9,0-1.3,0-.1,0-.3,0-.4,0,0,0,.2.1.2.2,0,.4-.1.8-.2,1.2-.2.6-1.2,4-1.4,4.3-.1-.4-.4-1-.6-1.4-.2-.5-.4-.9-.6-1.4-.2-.6-1-2.3-1-3-.4,0-.9,0-1.3,0-.1,0-.3,0-.4,0,.3.1,0,1.1-.1,1.4-.1.4-.3.9-.4,1.3-.2.7-.6,2-.9,2.6h0Z"/>
  <path class="st1" d="M27,16.4l.5.7c.5.7,1,1.5,1.5,2.2l1,1.5c.3.3.5.3,1,.3s.9,0,1.2,0c-.3-.2-.5-.5-.8-.8-.6-.8-1.5-2-2-2.9-.3-.4-.6-.9-.8-1.3,0-.1.3-.3.4-.4l1-1.1c.3-.3.8-.8,1-1.1.1-.2.3-.3.4-.4.1-.1.3-.2.4-.3h0c-.4,0-1.2-.1-1.5,0-.2,0-.2.1-.3.2-.2.2-1,1.1-1.2,1.4l-1.7,2h0Z"/>
</svg>