<?xml version="1.0" encoding="UTF-8"?>
<svg id="Layer_1" xmlns="http://www.w3.org/2000/svg" version="1.1" xmlns:xlink="http://www.w3.org/1999/xlink" viewBox="0 0 126 48">
  <!-- Generator: Adobe Illustrator 29.2.1, SVG Export Plug-In . SVG Version: 2.1.0 Build 116)  -->
  <defs>
    <style>
      .st0 {
        fill: #b8b8b8;
      }

      .st0, .st1 {
        fill-rule: evenodd;
      }

      .st2 {
        mask: url(#mask);
      }

      .st1 {
        fill: #fff;
      }
    </style>
    <mask id="mask" x="0" y="0" width="126" height="47.5" maskUnits="userSpaceOnUse">
      <g id="b">
        <path id="a" class="st1" d="M0,47.5h126V0H0v47.5Z"/>
      </g>
    </mask>
  </defs>
  <path class="st0" d="M66.2,16.3c-1.1-.9-2.9-1.3-5.4-1.3h-5.8v17.8h4.3v-5.6h1.9c2.3,0,4.1-.5,5.1-1.5,1.2-1.2,1.8-2.7,1.8-4.6s-.7-3.6-2.1-4.7M61.2,23.1h-1.8v-4.2h1.6c2,0,3,.7,3,2.1s-.9,2.1-2.8,2.1M75.7,14.9h-4.5v17.8h9.7v-4h-5.2v-13.8ZM89.7,14.9l-7.1,17.8h4.8l.9-2.6h6.1l.8,2.6h4.9l-7-17.8h-3.6ZM89.6,26.5l1.8-6.1,1.8,6.1h-3.7,0Z"/>
  <g class="st2">
    <path class="st0" d="M102.5,32.7h4.5V14.9h-4.5v17.8ZM124.4,18.3c-.6-.8-1.3-1.5-2.1-2.1-1.4-.9-3.2-1.3-5.5-1.3h-5.9v17.8h6.9c2.5,0,4.5-.8,6-2.5,1.5-1.6,2.3-3.8,2.3-6.5s-.5-4-1.6-5.5M117.2,28.7h-1.9v-9.7h2c1.4,0,2.4.4,3.2,1.3s1.1,2.1,1.1,3.6c0,3.2-1.4,4.8-4.3,4.8M18.6,0L4.1,3.8,0,18.4l5,5.1L0,28.6l3.8,14.7,14.5,4,5.1-5.1,5,5.1,14.5-3.8,4-14.6-5-5.1,5.1-5.1-3.8-14.7L28.7,0l-5.1,5.1L18.6,0ZM9.7,6.6l7.7-2,3.4,3.4-4.9,4.9-6.1-6.3ZM26.5,8.1l3.4-3.4,7.6,2.1-6.2,6.2s-4.8-4.9-4.8-4.9ZM4.7,17.2l2.1-7.7,6.1,6.3-4.9,4.9-3.3-3.4h0ZM34.2,16l6.2-6.2,2,7.7-3.4,3.4s-4.8-4.9-4.8-4.9ZM18.7,15.9l4.9-4.9,4.8,4.9-4.9,4.9-4.8-4.9ZM10.9,23.6l4.9-4.9,4.8,4.9-4.9,4.9s-4.8-4.9-4.8-4.9ZM26.4,23.8l4.9-4.9,4.8,4.9-4.9,4.9s-4.8-4.9-4.8-4.9ZM4.6,29.9l3.4-3.4,4.8,4.9-6.2,6.2s-2-7.7-2-7.7ZM18.6,31.5l4.9-4.9,4.8,4.9-4.9,4.9s-4.8-4.9-4.8-4.9ZM34.1,31.7l4.9-4.9,3.4,3.4-2.1,7.7s-6.1-6.3-6.1-6.3ZM9.4,40.6l6.2-6.2,4.8,4.9-3.4,3.4-7.6-2.1h0ZM26.3,39.4l4.9-4.9,6.1,6.3-7.7,2s-3.4-3.4-3.4-3.4Z"/>
  </g>
</svg>