<?xml version="1.0" encoding="UTF-8"?>
<svg id="Layer_1" xmlns="http://www.w3.org/2000/svg" version="1.1" viewBox="0 0 485 102">
  <!-- Generator: Adobe Illustrator 29.2.1, SVG Export Plug-In . SVG Version: 2.1.0 Build 116)  -->
  <defs>
    <style>
      .st0 {
        fill: #fff;
      }
    </style>
  </defs>
  <path class="st0" d="M464.7,81.2c1.8,0,2.9-.3,3.6-.9.5-.6.8-1.8.8-3.9v-42.7c0-2.2-.2-3.6-.7-4.4-.6-.9-1.9-1.4-3.8-1.4h-1.5v-3.1l17.2-1.3v52.9c0,2.7.7,4.2,2.2,4.6.6.2,1.4.2,2.5.2v3.3h-20.3v-3.3h0Z"/>
  <path class="st0" d="M437.7,65.8c1.6-1.3,4.4-2.4,8.5-3.2v6.1c0,3.4-.5,6.1-1.6,7.8-1.3,2.4-3.1,3.6-5.2,3.6s-2.4-.6-3.2-1.7-1.3-2.8-1.3-4.9c0-3.5,1-6.1,2.8-7.7M430.4,49.5c.3-.9,1.2-1.8,2.6-2.6,1.7-.9,3.5-1.4,5.4-1.4,5.2,0,7.8,2.4,7.8,7.1v6.5c-7.7,1.5-13.1,3.2-16.5,5.2-4.4,2.5-6.5,6-6.5,10.6s.8,5,2.5,7c2.1,2.6,5.3,3.8,9.5,3.8s4.7-.7,6.9-2.1c2-1.3,3.6-2.9,4.6-4.8v2c0,1.7,0,2.9,0,3.6h14.9v-3.3h-.6c-2.4,0-3.6-1.6-3.6-4.9v-19.8c0-9.6-5.4-14.4-16.2-14.4s-8,.9-11,2.8c-3,1.8-4.5,4.2-4.5,7.2s.7,3.7,2.1,4.9c1.2,1,2.6,1.5,4.1,1.5s3.2-.5,4.4-1.6c1.2-1.1,1.8-2.3,1.8-3.6,0-3.3-1.8-5-5.3-5s-2.4.4-3.2,1.3l.9.3v-.3"/>
  <path class="st0" d="M142.7,58.9c6.8,0,12.2-1.3,16.3-4,4.6-3,6.9-7.3,6.9-13.1s-2.3-10.5-7-13.4c-4-2.5-9.3-3.8-16.1-3.8h-22.5v3.3c2.7,0,4.3.2,5,.6,1.1.6,1.6,2.3,1.6,5v42.5c0,2.1-.4,3.5-1.4,4.2-.8.6-2.2.8-4.2.8h-1v3.3h26.8v-3.3h-2.8c-2.1,0-3.6-.3-4.4-1-.8-.7-1.2-2-1.2-4.1v-17.1h4ZM153.6,42c0,8.8-3.6,13.2-10.8,13.2h-3.8v-27h3.8c7.2,0,10.8,4.6,10.8,13.8"/>
  <path class="st0" d="M182.9,51.2c1.6-6.1,4.9-9.2,9.9-9.2s3.3.5,4.5,1.5c1.1,1,1.7,2.4,1.7,4s-.5,2.8-1.4,3.9c-1.1,1.3-2.4,1.9-4.1,1.9s-2.8-.5-3.7-1.4c-.9-.8-1.3-1.9-1.2-3.1,0-.1,0-.4.2-.9-1.5,1.9-2.7,5.2-3.6,9.9-.7,3.7-1.1,7.1-1.1,10.2v8.2c0,1.9.2,3.2.6,3.8.5.7,2,1,4.3,1h1.4v3.3h-22.5v-3.3h.8c1.6,0,2.7-.3,3.3-.8.7-.5,1-1.9,1-4v-17.9c0-6.2-.2-9.6-.5-10.3-.5-1.1-1.4-1.7-2.8-1.7h-1.2v-3.3h14.1l.3,8.1h0Z"/>
  <path class="st0" d="M229.7,77.9c-.2,0-.4.2-.6.4l.6-.3c-.7,1.9-2,3.7-3.9,5.2-2.2,1.8-4.8,2.6-7.6,2.6-4.8,0-8.1-1.3-10.1-3.9-1.6-2.1-2.4-5.3-2.4-9.7v-17.3c0-3.9-.2-6.2-.5-6.8-.5-.9-1.6-1.3-3.4-1.3h-.4v-3.5h15.6v30.4c0,4,1.7,6,5,6s4.6-1.9,5.6-5.8c.4-1.6.6-3.7.6-6.4v-12.6c0-4.3-.2-6.7-.6-7.1-.6-.7-1.9-1-3.8-1h-1.2v-3.5h17v31c0,3.4.2,5.4.6,5.9.5.7,1.6,1.1,3,1.1h1.1v3.3h-15.1l-.2-6.7.2.2v.2c0,0,.3-.3.3-.3h0Z"/>
  <path class="st0" d="M263.2,42.2c-5.6,0-10.1,2.4-13.5,7.1-3,4.2-4.5,9.1-4.5,14.5s1.1,10.8,3.4,14.6c2.9,4.8,7.3,7.3,13.3,7.3s5.8-1,8.1-2.9c1.8-1.5,3-3.2,3.5-5.1l-.3.2-.3-.3.3,6.8h14.8v-3.3h-.7c-1.7,0-2.8-.4-3.4-1.3-.4-.6-.6-1.8-.6-3.5V23.5l-17.3,1.3v3.1h1.1c2.2,0,3.6.6,4.2,1.8.4.7.6,2.3.7,4.7,0,6.7.1,10.5.3,11.6-1.6-2.5-4.6-3.8-9-3.8M272,59.4v8.4c0,2.3-.2,4.2-.5,5.7-1,4.6-3.2,6.9-6.5,6.9s-7-5.5-7-16.5.3-8.5.8-10.8c1.1-4.5,3.2-6.8,6.4-6.8,4.6,0,6.9,4.4,6.9,13.1"/>
  <path class="st0" d="M300.6,62.9h25.1c0-6.2-1.4-11.1-4.2-14.7-3.1-4.1-7.7-6.1-13.7-6.1s-10.2,2-13.9,6c-3.7,4.1-5.5,9.4-5.5,15.8s1.6,11.8,4.9,15.6c3.5,4.2,8.4,6.3,14.8,6.3s9.1-1.8,12.5-5.5c3-3.2,4.5-6.6,4.6-10.3h-4.2c0,2.7-1.1,5.2-3.1,7.6-2.3,2.7-5,4.1-8.2,4.1-4.5,0-7.4-3.2-8.6-9.7-.4-2.2-.6-5.2-.6-9M307.7,45.2c4.4,0,6.5,4.7,6.5,14.2h-13.7c0-1.5.1-2.7.2-3.7.6-7,2.9-10.5,7-10.5"/>
  <path class="st0" d="M342.1,48.5c.9-1.9,2.5-3.5,4.5-4.7,2.1-1.2,4.4-1.8,6.9-1.8,8.3,0,12.4,4.5,12.4,13.5v18.8c0,2.1,0,3.3,0,3.8.1,2,1.4,3,3.8,3h.9v3.3h-16.1v-30.4c0-2.1-.2-3.6-.8-4.5-.7-1.3-2.1-2-4.1-2s-3.4.9-4.6,2.8c-1.1,1.9-1.7,4.6-1.7,8.3v15.6c0,3.5.2,5.4.5,5.8.7.7,1.9,1.1,3.7,1.1h.7v3.3h-21v-3.3h1.1c2.1,0,3.3-1,3.4-3,0-.5.1-1.8.1-4.1v-20.7c0-3.2-.2-5.2-.7-5.9-.5-.7-1.5-1.1-3-1.1h-1v-3.3h14.8v5.4h0Z"/>
  <path class="st0" d="M386.2,85.7c-6.9,0-10.3-3.9-10.3-11.7v-27.4h-7.4v-3.3h1.1c4,0,7.5-2.3,10.3-6.8,2.4-3.8,3.6-7.8,3.7-11.8h3.5v18.6h7.9v3.3h-7.9v28.8c0,3.4,1,5.1,3.1,5.1s3-1.6,3.6-4.8c.2-1.2.3-3.5.3-6.9h3.9c0,5.7-.5,9.6-1.5,11.6-1.7,3.6-5.1,5.3-10.2,5.3"/>
  <path class="st0" d="M51.7,3.3C22.6,3.3,3.6,27.2,3.6,49.5s3.1,19.2,6.5,25.3c4.3-11.6,12.9-34.6,12.9-34.6,0,0,4-2.1,4-1.8l5.8-14.7,3.7-1.9,4.6-9.8,10.1,1.6,20.5,11.4,23,6.4c-5.9-15.1-22.7-28.1-43.1-28.1M51.4,101.9c-12.6,0-28.1-4.4-39.2-18.1h78.3c-9.1,11.7-24.7,18.1-39.1,18.1M66.8,81.5h-7.1l13.2-16.5,1.3,2.5-7.4,14h0ZM73.8,29l-22.7-13.2-8.3-1.5v6.1l6.4,6-8.9-.8s.3.5,7.7,8.3l33.9,5.6,5.9,3.9-15.4.7-6.4,23.3-21,14h-13.7l4.6-9.1-.8-.3-12.3,9.4h-3l12.6-17.7c.6-5,.3-2.8,1-11.9l-1.9-2.7-5,19.6-10.5,12.6h-2.7l6.2-8.8,8.8-26.9-2.2,1-3.9,10.7-2.7,1.5s-6.2,15.2-9.5,22.6C5.3,74.8,0,65.6,0,49.5,0,25.5,20.6,0,51.7,0s45.8,23.8,48.4,36.1l-26.3-7.1h0ZM88.5,63.8l-4.3,3.7-8.6,14h-5.7l5.7-10,4.4-3.7,6.4-18,6.8,2.8-4.8,11.1h0ZM92.6,81.5h-11.4l10.8-17.1,3.3-11.1,6.8,2.4c-.6,8.6-3.4,17.4-9.5,25.9M78.6,61l-3.4.6.9-6.8-.9-1.3.9-7.7,8.8,3.6-6.2,11.7h0Z"/>
  <path class="st0" d="M400.7,81.2h1.1c1.6,0,2.7-.5,3.1-1.5.3-.7.4-2.5.4-5.4v-21.6c0-2.9-.3-4.6-.9-5.2-.6-.5-1.4-.8-2.6-.8h-1.1v-3.3h15.8v30.8c0,3.4.2,5.4.6,6,.5.7,1.5,1,3,1h1.1v3.3h-20.5v-3.3h0ZM403.7,31.8c0-1.9.6-3.4,2-4.8,1.3-1.3,2.9-2,4.8-2s3.5.7,4.8,2c1.3,1.3,2,2.9,2,4.8s-.7,3.5-2,4.8c-1.3,1.4-2.9,2-4.8,2s-3.5-.7-4.8-2c-1.3-1.3-2-2.9-2-4.8"/>
</svg>